<svg width="16" height="16" viewBox="0 0 16 16" fill="none" xmlns="http://www.w3.org/2000/svg">
<path d="M11.8753 6.08968L7.9996 9.27764L4.1239 6.08968C4.05466 6.03261 3.9617 6.00065 3.8649 6.00065C3.7681 6.00065 3.67515 6.03261 3.6059 6.08968C3.57237 6.1174 3.54574 6.15049 3.52755 6.187C3.50937 6.22352 3.5 6.26273 3.5 6.30234C3.5 6.34195 3.50937 6.38116 3.52755 6.41768C3.54574 6.45419 3.57237 6.48728 3.6059 6.515L7.72897 9.90712C7.80138 9.96667 7.89849 10 7.9996 10C8.10072 10 8.19783 9.96667 8.27024 9.90712L12.3933 6.51566C12.4271 6.48792 12.4539 6.45475 12.4722 6.41811C12.4906 6.38147 12.5 6.34211 12.5 6.30234C12.5 6.26257 12.4906 6.22321 12.4722 6.18657C12.4539 6.14994 12.4271 6.11677 12.3933 6.08903C12.3241 6.03195 12.2311 6 12.1343 6C12.0375 6 11.9446 6.03195 11.8753 6.08903V6.08968Z" fill="#454746"/>
</svg>
