<svg width="20" height="20" viewBox="0 0 20 20" fill="none" xmlns="http://www.w3.org/2000/svg">
<g clip-path="url(#clip0_44_2067)">
<path d="M13.8359 9.875L11.7684 4.65833L10.0251 7.70833L8.28172 4.65833L6.21422 9.87667H5.61672V10.6608H8.73005V9.87667H8.26922L8.71755 8.58083L10.0251 10.7225L11.3326 8.58083L11.7809 9.87667H11.32V10.6608H14.4459V9.87667L13.8359 9.875ZM18.2817 8.28167C18.2823 7.19395 18.0684 6.11679 17.6524 5.11176C17.2364 4.10674 16.6264 3.19356 15.8573 2.42442C15.0882 1.65529 14.175 1.04529 13.17 0.62929C12.1649 0.213291 11.0878 -0.000546616 10 1.04932e-06C5.43005 1.04932e-06 1.71838 3.71083 1.71838 8.28167C1.71838 10.5733 2.65255 12.64 4.14672 14.1342C4.24028 14.2286 4.3598 14.293 4.49009 14.3193C4.62037 14.3455 4.75552 14.3325 4.87836 14.2817C5.00119 14.231 5.10616 14.1449 5.17992 14.0343C5.25367 13.9237 5.29288 13.7937 5.29255 13.6608C5.29283 13.4792 5.22123 13.3048 5.09338 13.1758C3.79904 11.8762 3.07367 10.1159 3.07672 8.28167C3.07672 4.45833 6.17672 1.345 10 1.345C13.8234 1.345 16.9367 4.45833 16.9367 8.28167C16.9388 9.19301 16.7604 10.0957 16.412 10.9379C16.0636 11.78 15.552 12.5448 14.9067 13.1883L9.05338 19.0408L10 20L15.8659 14.1342C16.6345 13.366 17.2436 12.4535 17.6582 11.4491C18.0728 10.4447 18.2847 9.36827 18.2817 8.28167Z" fill="#454746"/>
</g>
<defs>
<clipPath id="clip0_44_2067">
<rect width="20" height="20" fill="white"/>
</clipPath>
</defs>
</svg>
