<svg width="32" height="32" viewBox="0 0 32 32" fill="none" xmlns="http://www.w3.org/2000/svg">
<path d="M21.3867 16.1601L29.9289 8.36455C30.0265 8.2754 30.1031 8.16559 30.1529 8.04312C30.2027 7.92065 30.2246 7.78861 30.2169 7.65662C30.2093 7.52462 30.1722 7.396 30.1086 7.28012C30.0449 7.16424 29.9562 7.06403 29.8489 6.98677L27.8578 5.56455C27.2974 5.16862 26.6237 4.96501 25.9378 4.98424C25.2519 5.00347 24.5907 5.24451 24.0533 5.67122L14.1156 13.6001L11.2178 11.3601C11.6049 10.2176 11.5518 8.97183 11.0689 7.86642C10.586 6.76101 9.70814 5.87551 8.60693 5.38313C7.50572 4.89075 6.26044 4.82692 5.11466 5.20412C3.96888 5.58133 3.00504 6.37242 2.41168 7.42267C1.81832 8.47291 1.63813 9.70675 1.90635 10.8828C2.17458 12.0589 2.87192 13.0926 3.86197 13.7817C4.85202 14.4708 6.06355 14.7658 7.25957 14.6089C8.4556 14.452 9.55007 13.8546 10.3289 12.9334L12.6578 14.7112L8.8889 17.7779C7.82094 17.2032 6.57699 17.0475 5.40035 17.3414C4.22371 17.6352 3.199 18.3574 2.52663 19.3668C1.85426 20.3761 1.58259 21.6 1.76475 22.799C1.94691 23.998 2.5698 25.086 3.5116 25.8501C4.4534 26.6142 5.64637 26.9995 6.85719 26.9306C8.06801 26.8617 9.2096 26.3437 10.0587 25.4777C10.9078 24.6117 11.4033 23.4602 11.4483 22.2482C11.4934 21.0363 11.0847 19.8511 10.3022 18.9246L25.1556 7.05788C25.392 6.87106 25.6825 6.76577 25.9837 6.75776C26.2849 6.74975 26.5807 6.83945 26.8267 7.01344L27.92 7.79566L18.7556 16.169L27.92 24.5246L26.8267 25.3068C26.5807 25.4808 26.2849 25.5705 25.9837 25.5625C25.6825 25.5544 25.392 25.4492 25.1556 25.2623L16.4356 18.2846L15.1111 19.4934L24.0533 26.6046C24.5915 27.0334 25.2544 27.2756 25.9422 27.2949C26.63 27.3141 27.3054 27.1093 27.8667 26.7112L29.8578 25.289C29.9651 25.2117 30.0538 25.1115 30.1175 24.9956C30.1811 24.8798 30.2181 24.7511 30.2258 24.6192C30.2335 24.4872 30.2116 24.3551 30.1618 24.2327C30.1119 24.1102 30.0354 24.0004 29.9378 23.9112L21.3867 16.1601ZM6.62223 12.9246C6.01357 12.9263 5.41807 12.7474 4.91113 12.4106C4.40419 12.0737 4.00861 11.594 3.77446 11.0321C3.54032 10.4703 3.47814 9.85164 3.59581 9.25445C3.71347 8.65727 4.00569 8.10843 4.43545 7.67741C4.86522 7.2464 5.41322 6.9526 6.01006 6.8332C6.6069 6.71381 7.22575 6.77419 7.78825 7.00671C8.35075 7.23923 8.83161 7.63342 9.16995 8.13939C9.50829 8.64535 9.6889 9.24033 9.6889 9.849C9.6889 10.6631 9.36609 11.4441 8.79124 12.0206C8.21638 12.5971 7.43638 12.9222 6.62223 12.9246ZM6.62223 25.1201C6.01357 25.1219 5.41807 24.943 4.91113 24.6061C4.40419 24.2692 4.00861 23.7895 3.77446 23.2277C3.54032 22.6659 3.47814 22.0472 3.59581 21.45C3.71347 20.8528 4.00569 20.304 4.43545 19.873C4.86522 19.442 5.41322 19.1482 6.01006 19.0288C6.6069 18.9094 7.22575 18.9698 7.78825 19.2023C8.35075 19.4348 8.83161 19.829 9.16995 20.3349C9.50829 20.8409 9.6889 21.4359 9.6889 22.0446C9.6889 22.8587 9.36609 23.6396 8.79124 24.2162C8.21638 24.7927 7.43638 25.1178 6.62223 25.1201Z" fill="#454746"/>
</svg>
