<svg width="32" height="32" viewBox="0 0 32 32" fill="none" xmlns="http://www.w3.org/2000/svg">
<path d="M10.676 3.18C8.77119 3.70497 6.8793 4.2758 5.00201 4.892C4.83059 4.94753 4.67821 5.05009 4.56223 5.18799C4.44625 5.32589 4.37133 5.4936 4.34601 5.672C3.23801 13.986 5.79801 20.052 8.85201 24.048C10.145 25.7568 11.6868 27.2622 13.426 28.514C14.118 29.002 14.73 29.354 15.212 29.58C15.452 29.694 15.648 29.77 15.798 29.816C15.8636 29.839 15.9312 29.8558 16 29.866C16.068 29.855 16.1349 29.8382 16.2 29.816C16.352 29.77 16.548 29.694 16.788 29.58C17.268 29.354 17.882 29 18.574 28.514C20.3132 27.2621 21.855 25.7568 23.148 24.048C26.202 20.054 28.762 13.986 27.654 5.672C27.6289 5.49351 27.5541 5.3257 27.4381 5.18776C27.3221 5.04982 27.1696 4.94732 26.998 4.892C25.696 4.466 23.498 3.772 21.324 3.182C19.104 2.58 17.062 2.134 16 2.134C14.94 2.134 12.896 2.58 10.676 3.182V3.18ZM10.144 1.12C12.314 0.53 14.62 0 16 0C17.38 0 19.686 0.53 21.856 1.12C24.076 1.72 26.314 2.43 27.63 2.86C28.1802 3.0417 28.668 3.37493 29.0374 3.8214C29.4067 4.26787 29.6426 4.80948 29.718 5.384C30.91 14.338 28.144 20.974 24.788 25.364C23.3649 27.242 21.668 28.8957 19.754 30.27C19.0922 30.7456 18.391 31.1637 17.658 31.52C17.098 31.784 16.496 32 16 32C15.504 32 14.904 31.784 14.342 31.52C13.609 31.1638 12.9078 30.7456 12.246 30.27C10.3321 28.8957 8.63517 27.2419 7.21201 25.364C3.85601 20.974 1.09001 14.338 2.28201 5.384C2.35739 4.80948 2.5933 4.26787 2.96264 3.8214C3.33199 3.37493 3.81979 3.0417 4.37001 2.86C6.28039 2.23362 8.20562 1.65345 10.144 1.12Z" fill="#454746"/>
<path d="M21.708 10.2921C21.8012 10.385 21.8751 10.4953 21.9255 10.6168C21.9759 10.7383 22.0018 10.8685 22.0018 11.0001C22.0018 11.1316 21.9759 11.2619 21.9255 11.3833C21.8751 11.5048 21.8012 11.6152 21.708 11.7081L15.708 17.7081C15.6152 17.8012 15.5048 17.8751 15.3833 17.9255C15.2618 17.9759 15.1316 18.0019 15 18.0019C14.8685 18.0019 14.7383 17.9759 14.6168 17.9255C14.4953 17.8751 14.3849 17.8012 14.292 17.7081L11.292 14.7081C11.1991 14.6151 11.1253 14.5047 11.075 14.3832C11.0247 14.2618 10.9988 14.1316 10.9988 14.0001C10.9988 13.8686 11.0247 13.7384 11.075 13.6169C11.1253 13.4954 11.1991 13.3851 11.292 13.2921C11.385 13.1991 11.4954 13.1253 11.6169 13.075C11.7384 13.0247 11.8686 12.9988 12 12.9988C12.1315 12.9988 12.2617 13.0247 12.3832 13.075C12.5047 13.1253 12.6151 13.1991 12.708 13.2921L15 15.5861L20.292 10.2921C20.3849 10.199 20.4953 10.1251 20.6168 10.0747C20.7383 10.0242 20.8685 9.99829 21 9.99829C21.1316 9.99829 21.2618 10.0242 21.3833 10.0747C21.5048 10.1251 21.6152 10.199 21.708 10.2921Z" fill="#454746"/>
</svg>
