<svg width="20" height="20" viewBox="0 0 20 20" fill="none" xmlns="http://www.w3.org/2000/svg">
<g clip-path="url(#clip0_42_1075)">
<path d="M9.69 0.3125C4.33844 0.3125 0.00250244 4.64844 0.00250244 10C0.00250244 15.3516 4.33844 19.6875 9.69 19.6875C15.0416 19.6875 19.3775 15.3516 19.3775 10C19.3775 4.64844 15.0416 0.3125 9.69 0.3125ZM14.4478 6.94922L12.858 14.4414C12.7408 14.9727 12.4244 15.1016 11.983 14.8516L9.5611 13.0664L8.39313 14.1914C8.26422 14.3203 8.15485 14.4297 7.90485 14.4297L8.07672 11.9648L12.565 7.91016C12.7603 7.73828 12.522 7.64062 12.2642 7.8125L6.71735 11.3047L4.32672 10.5586C3.80719 10.3945 3.79547 10.0391 4.4361 9.78906L13.7759 6.1875C14.2095 6.03125 14.5884 6.29297 14.4478 6.94922Z" fill="#454746"/>
</g>
<defs>
<clipPath id="clip0_42_1075">
<rect width="19.38" height="20" fill="white"/>
</clipPath>
</defs>
</svg>
