<svg width="373" height="275" viewBox="0 0 373 275" fill="none" xmlns="http://www.w3.org/2000/svg">
<path d="M46.2751 275C49.2012 275 52.1273 274.791 55.4713 274.373C98.7355 268.104 188.608 193.294 217.033 160.068C217.451 159.65 217.451 159.233 217.451 159.024C217.451 158.606 217.033 158.188 216.615 158.188C216.197 158.188 215.779 158.397 215.361 158.815C181.293 193.085 97.8995 263.716 55.4713 269.776C52.3363 270.194 49.2012 270.403 46.4841 270.403C26.8376 270.403 18.6863 258.701 18.6863 240.521C18.6863 189.742 81.3881 89.0198 124.025 57.2568C143.045 53.9134 239.605 42.2112 239.605 14.2097L239.396 12.329C238.351 5.64209 235.634 0 224.557 0H223.93C183.592 0.835855 116.919 54.5403 116.501 54.7492C110.858 57.2568 -81.0094 71.0486 -104 191.413V192.04C-104 192.876 -103.582 193.294 -103.164 193.294C-102.746 193.294 -102.328 192.876 -102.119 191.831C-95.6398 157.352 -72.4401 131.44 -44.6424 111.797C3.63794 77.7356 57.9794 67.7052 111.067 59.1375C60.6965 102.394 13.6702 188.488 13.6702 238.013C13.6702 260.163 23.2845 275 46.2751 275ZM129.25 52.6596C138.029 45.7637 196.759 3.55242 223.512 3.55242C229.782 3.55242 234.171 5.64209 235.843 11.0752C236.261 12.1201 236.47 13.1649 236.47 14.2097C236.47 37.405 149.942 49.1071 129.25 52.6596Z" fill="#454746"/>
<path d="M194.945 202.489C198.498 202.489 226.505 169.472 242.807 162.158C241.971 165.293 241.135 170.517 241.135 175.95C241.135 185.562 243.434 196.011 250.332 198.1C251.586 198.518 252.84 198.727 254.094 198.727C272.068 198.727 300.075 166.128 313.451 159.65C314.078 159.233 314.287 159.024 314.287 158.606C314.287 158.397 313.869 157.979 313.451 157.979L312.824 158.188C297.567 165.502 271.65 194.757 255.348 194.757H254.303C248.66 194.339 246.779 188.906 246.779 182.428C246.779 172.606 250.959 160.277 250.959 159.859C250.75 157.77 249.496 156.934 247.824 156.934C237.373 156.934 205.604 188.07 201.215 192.249C204.768 184.935 212.293 171.771 219.608 159.441C220.444 158.606 257.647 128.723 279.592 103.229C299.448 80.2432 307.39 64.3617 307.39 57.0479C307.39 54.9582 306.763 53.4954 305.509 52.8685C304.882 52.4506 304.255 52.4506 303.419 52.4506C292.551 52.4506 264.544 83.5866 240.926 117.857C216.264 154.008 194.109 192.876 194.109 201.026C194.109 201.862 194.318 202.28 194.736 202.489H194.945ZM223.161 153.59C234.029 136.246 290.043 55.7941 303.21 55.7941C303.628 55.7941 304.046 56.003 304.464 56.212C305.091 56.421 305.3 57.0479 305.3 58.0927C305.3 64.1527 293.387 83.3777 277.502 100.931C256.184 124.753 227.968 149.411 223.161 153.59Z" fill="#454746"/>
<path d="M332.662 139.799C333.707 139.799 334.752 139.59 335.17 138.754C335.588 138.127 335.797 137.5 335.797 136.873C335.797 135.828 335.17 134.992 334.543 134.366C333.916 133.53 332.871 132.903 331.617 132.903C330.781 132.903 330.154 133.112 329.318 133.948C328.9 134.574 328.482 135.619 328.482 136.455C328.482 137.5 329.109 138.545 329.945 139.172C330.572 139.59 331.617 139.799 332.662 139.799ZM310.089 194.966C325.556 194.966 358.579 164.666 371.537 159.859C372.582 159.65 373 159.024 373 158.606C373 158.188 372.582 157.979 371.955 157.979L370.91 158.188C357.952 162.785 325.347 191.622 311.343 191.622C310.089 191.622 309.044 191.413 308.208 190.995C306.118 189.951 305.073 187.861 305.073 184.935C305.073 175.114 317.404 156.725 325.347 147.739L325.765 146.904C325.765 145.65 324.302 144.187 322.839 144.187C322.421 144.187 322.003 144.396 321.585 144.814C315.941 151.083 301.52 171.979 301.52 184.935C301.52 188.906 302.983 192.249 306.327 194.13C307.372 194.757 308.835 194.966 310.089 194.966Z" fill="#454746"/>
</svg>
