<svg width="392" height="187" viewBox="0 0 392 187" fill="none" xmlns="http://www.w3.org/2000/svg">
<path d="M10.1628 187C36.0319 187 99.0107 117.068 108.404 106.901C130.731 82.4094 174 30.4992 203.411 22.6433C174.154 61.3064 146.745 124.769 146.745 172.675V174.215C146.899 175.139 147.669 175.447 148.439 175.447C149.363 175.447 150.595 174.831 150.903 174.215L152.904 170.518C176.464 125.694 224.352 34.9662 279.786 2.46458C280.248 2.15651 280.556 1.6944 280.556 1.23229C280.556 0.616146 279.94 0 279.324 0C279.016 0 278.862 0 278.554 0.154043C222.966 32.8097 173.692 124.307 149.671 169.748C151.057 125.694 190.322 42.36 210.032 20.3328L210.186 20.0247C210.186 19.4086 208.954 19.1005 207.722 19.1005L206.336 19.2545C175.848 24.3377 129.037 80.715 106.556 105.207C98.0868 114.295 34.0301 184.073 10.3168 184.073C6.1593 184.073 3.23363 182.071 2.00177 177.142C1.84779 176.526 1.53982 176.372 1.23186 176.372C0.615929 176.372 0 176.988 0 177.912V178.22C1.53982 184.381 5.2354 187 10.1628 187Z" fill="#454746"/>
<path d="M224.85 146.951C236.091 146.643 261.652 119.532 279.822 111.984C280.13 111.676 280.438 111.368 280.438 111.214C280.438 110.906 280.13 110.598 279.668 110.598L279.052 110.752C265.194 114.603 235.475 144.64 225.312 144.64H225.004C223.464 144.486 222.387 142.792 222.387 139.711C222.387 136.476 223.618 131.393 227.314 124.769C230.394 119.224 233.319 114.295 236.245 110.598L236.399 110.136C236.399 109.212 235.013 107.979 233.935 107.979C233.473 107.979 233.165 108.133 233.011 108.442L230.856 111.676C227.93 107.517 225.004 105.823 221.617 105.823C220.693 105.823 219.615 105.823 218.691 106.131C208.528 108.904 203.139 117.53 203.139 123.845C203.139 127.696 205.141 130.623 209.452 130.623C212.686 130.623 217.305 128.928 223.311 124.461C220.847 129.544 219.461 135.244 219.461 139.557C219.461 143.87 220.847 146.951 224.388 146.951H224.85ZM209.298 128.62C207.142 128.62 205.911 127.542 205.911 125.54C205.911 123.383 207.142 120.456 210.222 116.451C213.456 112.138 217.613 108.287 221.771 108.287C224.388 108.287 227.006 109.828 229.316 113.833C221.463 123.999 213.456 128.62 209.298 128.62Z" fill="#454746"/>
<path d="M294.037 97.3509C294.806 97.3509 295.576 97.1969 295.884 96.5807C296.192 96.1186 296.346 95.6565 296.346 95.1944C296.346 94.4242 295.884 93.8081 295.422 93.346C294.96 92.7298 294.191 92.2677 293.267 92.2677C292.651 92.2677 292.189 92.4217 291.573 93.0379C291.265 93.5 290.957 94.2702 290.957 94.8863C290.957 95.6565 291.419 96.4267 292.035 96.8888C292.497 97.1969 293.267 97.3509 294.037 97.3509ZM277.406 138.016C288.801 138.016 313.13 115.681 322.677 112.138C323.447 111.984 323.755 111.522 323.755 111.214C323.755 110.906 323.447 110.752 322.985 110.752L322.215 110.906C312.668 114.295 288.647 135.552 278.33 135.552C277.406 135.552 276.637 135.398 276.021 135.09C274.481 134.32 273.711 132.779 273.711 130.623C273.711 123.383 282.796 109.828 288.647 103.204L288.955 102.588C288.955 101.664 287.877 100.586 286.799 100.586C286.491 100.586 286.183 100.74 285.875 101.048C281.718 105.669 271.093 121.072 271.093 130.623C271.093 133.549 272.171 136.014 274.635 137.4C275.405 137.862 276.483 138.016 277.406 138.016Z" fill="#454746"/>
<path d="M314.555 160.198C329.799 160.198 367.063 117.838 381.999 112.138C382.615 111.984 382.923 111.522 382.923 111.214C382.923 110.906 382.615 110.598 382.153 110.598L381.383 110.752C362.905 118.916 331.955 156.809 315.479 157.117C312.861 157.117 311.783 155.115 311.783 151.88C311.783 140.327 324.872 113.987 326.565 111.83C339.038 100.432 399.861 50.2158 399.861 35.5824C399.861 34.6582 399.707 33.888 399.091 33.2718C398.629 32.6557 397.859 32.3476 396.781 32.3476C386.772 32.3476 354.59 59.1499 332.109 93.8081C323.178 107.671 307.471 135.552 307.471 150.493C307.471 154.806 308.703 158.041 311.783 159.582C312.707 160.044 313.631 160.198 314.555 160.198ZM328.567 107.825C341.194 86.5684 358.44 65.1573 374.454 50.3699C386.31 39.4333 394.01 35.2743 396.627 35.2743C397.089 35.2743 397.243 35.4283 397.397 35.5824L397.551 36.1985C397.551 39.8954 386.618 53.1425 374.146 65.6194C359.364 80.4069 341.656 95.9646 328.567 107.825Z" fill="#454746"/>
<path d="M361.018 159.736C368.255 159.736 378.726 151.88 382.729 129.853C394.432 125.231 419.377 119.224 427.846 111.522L428 111.06C428 110.752 427.846 110.598 427.538 110.598C427.384 110.598 427.23 110.598 427.076 110.752C421.225 115.835 399.975 122.767 383.191 127.696C384.269 120.764 384.115 116.143 385.347 111.06C386.887 110.444 396.126 105.823 396.126 101.818L395.972 100.894C395.51 99.8155 394.586 99.3534 393.354 99.3534C389.966 99.3534 384.423 103.05 382.113 109.212C379.958 115.065 380.111 123.075 379.188 129.236C370.565 132.779 364.713 136.476 360.71 140.327C355.628 144.948 353.627 149.415 353.627 152.804C353.627 156.963 356.706 159.736 361.018 159.736ZM385.809 109.058C386.579 105.669 391.198 100.74 393.508 100.74C394.124 100.74 394.586 101.048 394.74 101.818V102.126C394.74 104.437 387.503 108.287 385.809 109.058ZM361.018 157.887C359.786 157.887 358.708 157.425 357.784 156.655C356.552 155.731 355.782 154.498 355.782 152.496C355.782 150.031 357.322 146.488 361.634 142.021C366.099 137.554 373.49 133.703 378.88 131.547C377.186 145.256 367.793 157.887 361.018 157.887Z" fill="#454746"/>
</svg>
