<svg width="151" height="104" viewBox="0 0 151 104" fill="none" xmlns="http://www.w3.org/2000/svg">
<g clip-path="url(#clip0_42_1089)">
<path d="M75.5152 0.206097C75.8306 0.182541 76.1225 0.0482718 76.4344 0.00115967C76.7168 0.035316 76.9897 0.146029 77.2804 0.123651C78.2197 0.100095 79.1626 0.158985 80.0995 0.07065C81.7407 0.339189 83.4941 0.690174 84.776 1.82322C85.7851 2.71364 86.1064 4.12347 86.0509 5.41788C85.9776 5.81244 85.9339 6.25058 85.6941 6.5839C85.2605 6.89484 84.6732 6.82182 84.2124 6.61217C84.0506 6.14222 84.1368 5.63459 84.008 5.15876C83.8414 4.47446 83.4964 3.84197 83.0593 3.2943C82.0644 2.22014 80.6135 1.64537 79.1673 1.55233C77.4931 1.40628 75.8212 1.729 74.2013 2.12238C72.3451 2.62059 70.509 3.20832 68.7533 3.99509C62.5727 6.64632 56.8611 10.2563 51.3835 14.123C48.9259 15.8497 46.5227 17.6541 44.1963 19.555C43.5441 20.1628 42.8091 20.6775 42.1829 21.3159C39.2634 23.9 36.5009 26.6596 33.8472 29.5134C29.0608 34.6557 24.6667 40.156 20.5928 45.8731C18.3195 49.0673 16.1927 52.3616 14.1924 55.7313C11.5493 60.1103 9.19451 64.6614 7.15518 69.3502C6.33756 71.3925 5.44432 73.4101 4.7992 75.516C4.14109 77.4075 3.59286 79.3356 3.12733 81.2837C2.48812 84.26 1.95525 87.2822 1.93753 90.3375C1.89027 92.3291 2.0675 94.3585 2.75988 96.2418C3.48298 98.4302 5.13121 100.341 7.27806 101.235C8.91567 101.971 10.7329 102.239 12.5182 102.219C14.8363 102.245 17.1557 101.886 19.364 101.187C20.796 100.822 22.163 100.249 23.5242 99.6798C27.3913 98.045 31.0659 95.9886 34.6329 93.7837C38.3831 91.4894 42.0022 88.9889 45.5562 86.4036C51.0468 82.4273 56.3436 78.192 61.5128 73.8105C66.2425 69.8237 70.8387 65.6813 75.2741 61.3729C75.7172 60.9077 76.2383 60.4967 76.5242 59.9078C81.6131 51.5065 86.9371 43.223 93.0219 35.4978C93.7155 34.5449 94.5213 33.6793 95.2161 32.7276C96.8832 30.7819 98.5208 28.809 100.297 26.9611C102.386 24.7197 104.595 22.5655 107.103 20.7917C108.192 20.1275 109.357 19.3242 110.7 19.462C111.287 19.4844 111.7 20.0109 111.801 20.5503C111.967 21.4796 111.727 22.4159 111.454 23.3005C110.744 25.4676 109.585 27.4463 108.394 29.3791C106.206 32.8136 103.639 35.9913 100.972 39.0653C97.9501 42.5257 94.6525 45.7364 91.2945 48.8706C87.1911 52.6749 82.9541 56.3343 78.6321 59.8889C78.4525 60.0244 78.3201 60.2093 78.2138 60.4048C77.3796 61.8217 76.562 63.248 75.7149 64.6567C74.9279 66.1277 74.0276 67.5352 73.2726 69.0239C72.6228 70.1464 72.0474 71.3089 71.4141 72.4384C71.4625 72.4125 71.5606 72.3607 71.609 72.3336C75.1749 68.9662 78.7703 65.6166 82.6623 62.6214C83.8781 61.6933 85.1399 60.8194 86.4692 60.0585C87.4782 59.578 88.5522 58.9349 89.7172 59.2081C90.1697 59.4272 90.4746 59.9843 90.3009 60.4778C89.8105 62.1644 89.3084 63.8581 89.0874 65.6048C88.7661 67.5517 88.5451 69.614 89.1855 71.5221C89.4726 72.4219 90.2194 73.2004 91.1528 73.4254C92.4761 73.6056 93.8242 73.3429 95.0365 72.8012C98.1439 71.4844 100.82 69.3867 103.463 67.3326C105.39 65.8003 107.287 64.2303 109.218 62.7039C109.556 62.4294 110.045 62.2245 110.089 61.731C110.27 60.9053 110.615 60.1245 110.79 59.2988C110.804 59.2965 110.834 59.2906 110.848 59.287C111.356 57.5627 112.151 55.9291 113.041 54.3697C113.783 53.2261 114.612 52.1178 115.652 51.2262C117.048 49.9588 118.777 49.092 120.578 48.5514C120.371 48.0002 120.463 47.3877 120.722 46.8718C121.011 46.3795 121.609 46.0851 122.177 46.131C124.816 46.1416 127.455 46.1227 130.094 46.1404C130.629 46.237 131.115 46.6198 131.315 47.1286C131.538 47.5785 131.447 48.0932 131.411 48.5726C132.895 49.0178 134.311 49.7056 135.55 50.6384C137.351 52.0082 138.698 53.8798 139.695 55.8914C141.48 59.5568 142.327 63.5719 143.201 67.527C143.421 68.6506 143.83 69.7989 143.527 70.9497C143.047 72.8612 141.367 74.2593 139.547 74.8647C138.291 75.3075 136.945 75.1933 135.639 75.2051C128.551 75.2051 121.464 75.2074 114.377 75.2039C112.826 75.1733 111.292 74.6138 110.11 73.608C108.827 72.5809 108.012 70.8743 108.35 69.2277C108.662 67.8226 108.91 66.4069 109.256 65.01C109.373 64.4611 109.546 63.9241 109.618 63.367C107.258 65.3162 104.968 67.3491 102.585 69.2689C100.027 71.2429 97.4078 73.2346 94.3701 74.4183C93.0161 74.9 91.4919 75.2392 90.0941 74.7339C88.9445 74.3853 88.1599 73.3653 87.6743 72.3194C87.0989 71.0521 86.8685 69.66 86.7137 68.2866C86.5495 65.8933 86.6535 63.46 87.2809 61.1338C86.0698 61.5826 85.0194 62.3611 83.9738 63.1008C81.3106 65.0842 78.8837 67.3574 76.4899 69.6494C75.859 70.1888 75.3249 70.8283 74.7035 71.3795C73.7866 72.2005 72.9772 73.1345 72.045 73.9389C71.2404 74.7434 70.4157 75.5348 69.4929 76.2038C69.3086 76.3475 69.0675 76.4476 68.8336 76.3746C68.6398 75.9047 68.7533 75.3782 68.8714 74.9024C69.4787 72.8294 70.4606 70.8955 71.4519 68.9839C72.0509 67.686 72.7976 66.4622 73.4664 65.1996C73.6602 64.7768 73.9721 64.4093 74.0855 63.95C73.4203 64.626 72.8106 65.3574 72.0864 65.9723C69.6926 68.3856 67.1889 70.6882 64.638 72.9342C59.3412 77.6148 53.8766 82.1105 48.1887 86.3106C43.0454 90.1443 37.7522 93.7884 32.2025 97.0156C30.8284 97.7447 29.5122 98.5797 28.1014 99.2405C25.9416 100.402 23.6919 101.39 21.3998 102.262C19.8661 102.848 18.2699 103.253 16.6653 103.596C15.8489 103.784 15.0006 103.755 14.1912 103.975C13.8651 104.068 13.5579 103.835 13.2283 103.875C12.4815 103.902 11.7289 103.826 10.9893 103.958C8.92276 103.68 6.8019 103.221 5.05678 102.024C2.86031 100.562 1.39993 98.1805 0.737091 95.6635C0.327099 94.1571 0.0742504 92.5988 0.117967 91.0359C0.0966995 90.0948 0.162865 89.1502 0.0860657 88.2127C-0.00373085 87.8594 0.132146 87.5154 0.15105 87.1645C0.277474 84.8996 0.726457 82.67 1.15417 80.4463C1.98597 76.9364 3.05172 73.4808 4.36558 70.1205C7.34541 62.4718 11.3201 55.2401 15.8158 48.3782C16.4149 47.5502 16.9028 46.6504 17.5149 45.8307C22.4289 38.732 27.9348 32.0398 33.9961 25.8846C34.6755 25.1473 35.4116 24.4641 36.1429 23.7786C38.1988 21.7352 40.3681 19.813 42.5776 17.9379C43.7969 16.872 45.119 15.9309 46.3904 14.9298C47.4289 14.2408 48.3895 13.4422 49.4399 12.7709C54.2747 9.39767 59.3069 6.27885 64.6439 3.756C65.3422 3.42974 66.0263 3.06816 66.7576 2.81964C68.1849 2.21072 69.6276 1.63359 71.1128 1.17896C72.5649 0.794999 74.0158 0.375701 75.5152 0.206097ZM109.125 21.0403C107.958 21.7104 106.948 22.6185 105.982 23.5454C104.805 24.6903 103.666 25.8728 102.591 27.1107C100.118 29.8926 97.7989 32.8041 95.5067 35.7345C90.2536 42.6435 85.134 49.6609 80.3772 56.9197C80.1822 57.2023 79.9967 57.4933 79.8679 57.8124C84.418 53.7608 88.9374 49.6679 93.2594 45.3713C94.4103 44.3219 95.4358 43.15 96.5453 42.0581C101.017 37.4329 105.325 32.5792 108.673 27.0647C109.575 25.4558 110.626 23.8658 111.007 22.0355C111.001 21.6398 111.189 21.032 110.724 20.8306C110.217 20.4973 109.602 20.8059 109.125 21.0403ZM121.889 47.5243C121.796 47.741 121.763 47.9731 121.782 48.2075C122.814 48.2958 123.855 48.2263 124.891 48.2487C126.541 48.2451 128.19 48.2546 129.84 48.2451C130.263 48.3358 130.239 47.489 129.86 47.5267C127.204 47.5137 124.546 47.5173 121.889 47.5243ZM121.718 49.3334C120.471 49.655 119.227 50.066 118.127 50.7468C116.284 51.8374 114.8 53.4663 113.732 55.3073C113.108 56.2907 112.683 57.3755 112.233 58.4426C110.867 61.9194 110.187 65.6048 109.367 69.2336C109.126 70.1087 109.346 71.0639 109.853 71.8059C110.669 73.0721 112.079 73.8565 113.544 74.1179C114.015 74.1733 114.493 74.1568 114.968 74.1592C122.213 74.158 129.458 74.1592 136.704 74.1592C137.541 74.1521 138.408 74.2228 139.206 73.9083C140.478 73.4996 141.66 72.6528 142.261 71.4408C142.61 70.8107 142.63 70.0734 142.549 69.3761C141.997 66.653 141.416 63.9311 140.626 61.2646C140.081 59.366 139.397 57.5003 138.433 55.7713C137.806 54.5287 136.921 53.4381 135.979 52.4216C135.009 51.5347 133.94 50.7338 132.739 50.1838C131.845 49.814 130.924 49.4795 129.972 49.2946C128.201 49.2734 126.429 49.2934 124.658 49.291C123.678 49.3169 122.691 49.2416 121.718 49.3334Z" fill="#454746"/>
<path d="M144.556 5.35312C145.099 4.64761 146.226 4.5899 146.896 5.14818C147.977 6.04095 149.137 6.83479 150.228 7.71461C150.538 7.97019 150.906 8.27525 150.877 8.72163C150.86 9.15506 150.975 9.66034 150.667 10.0219C147.65 13.9593 144.622 17.8861 141.585 21.807C141.219 22.3029 140.562 22.5573 139.958 22.4101C139.325 22.277 138.952 21.6904 138.383 21.4372C136.147 24.2863 133.955 27.1696 131.756 30.0481C130.878 31.1717 130.51 32.5686 129.893 33.8324C129.321 35.1292 128.713 36.4094 128.174 37.7203C128.041 38.0207 127.874 38.308 127.778 38.6237C127.556 39.6201 128.571 40.4658 128.212 41.4622C128.011 41.9451 127.46 42.0452 126.995 41.9958C126.778 41.8132 126.507 41.6448 126.45 41.3468C126.145 40.4375 126.973 39.6401 126.858 38.7309C125.22 38.3092 123.69 37.3458 122.738 35.936C122.413 35.3824 122.091 34.6969 122.374 34.0585C122.676 33.3189 123.428 32.9208 124.066 32.5062C126.652 31.1682 129.145 29.5452 131.072 27.3403C132.966 24.9812 134.747 22.5361 136.625 20.1652C136.628 20.1298 136.634 20.0603 136.636 20.025C136.118 19.5869 135.415 19.2665 135.193 18.5775C134.985 18.0345 135.196 17.4327 135.555 17.0051C138.562 13.1266 141.545 9.22927 144.556 5.35312ZM144.082 7.43429C141.878 10.4601 139.656 13.4729 137.451 16.4987C137.183 16.8261 136.982 17.2148 136.638 17.4727C136.643 17.4998 136.654 17.5552 136.66 17.5822C139.482 14.3645 142.254 11.0973 145.058 7.86066C145.327 7.53323 145.639 7.2164 145.747 6.79357C145.622 6.66401 145.499 6.53327 145.378 6.40136C144.726 6.32127 144.409 6.99615 144.082 7.43429Z" fill="#454746"/>
<path d="M122.031 52.3203C123.091 52.1849 124.166 52.2803 125.234 52.2508C126.575 52.2532 127.918 52.2461 129.261 52.2579C130.447 52.3745 131.662 52.3992 132.798 52.8009C134.174 53.2084 135.225 54.2884 136.027 55.4297C137.269 57.3696 137.959 59.6062 138.418 61.8464C138.8 63.48 139.103 65.1313 139.451 66.772C139.629 67.6765 139.908 68.5681 139.936 69.4939C139.904 70.1947 139.839 70.9779 139.312 71.502C138.871 71.9166 138.252 72.1427 137.65 72.138C129.853 72.1357 122.055 72.138 114.258 72.1357C113.343 72.164 112.393 71.6174 112.134 70.7094C111.772 69.1605 112.307 67.6165 112.606 66.1053C113.193 63.0748 113.722 59.9925 114.936 57.1328C115.614 55.6794 116.54 54.2672 117.903 53.3674C119.126 52.5865 120.615 52.4216 122.031 52.3203ZM116.976 56.995C115.696 59.8465 114.618 62.7969 113.929 65.8486C113.647 67.0794 113.465 68.3514 113.612 69.6128C113.695 70.1593 114.006 70.7765 114.614 70.8613C115.466 71.0168 116.338 71.1051 117.207 71.0497C116.391 70.7423 115.303 70.4585 115.052 69.5033C114.809 67.5964 115.254 65.6943 115.641 63.8369C116.335 60.817 117.18 57.8324 118.19 54.9021C117.647 55.511 117.331 56.2719 116.976 56.995Z" fill="#454746"/>
<path d="M80.6598 80.4004C82.1545 80.3874 83.6491 80.4133 85.1437 80.3909C85.1497 80.5217 85.1544 80.6548 85.1615 80.7878C84.9145 80.8126 84.6664 80.8291 84.4206 80.8503C84.4478 85.5803 84.4265 90.3116 84.4336 95.0428C84.4254 97.9696 84.4502 100.898 84.4195 103.825C83.7306 103.764 83.0382 103.808 82.3482 103.789C82.1556 103.828 82.0966 103.621 82.0186 103.501C80.6196 100.907 79.1853 98.3312 77.7473 95.7589C76.9663 94.2325 76.0565 92.7755 75.285 91.2444C73.6947 88.4612 72.1953 85.6274 70.6168 82.8372C70.3533 82.3732 70.1276 81.8856 69.8133 81.4521C69.7649 87.1197 69.8062 92.7897 69.7932 98.4584C69.8133 99.204 69.7294 99.9613 69.8818 100.7C70.1146 101.724 70.8294 102.646 71.7995 103.075C72.2461 103.3 72.7471 103.377 73.2362 103.458C73.2339 103.541 73.2315 103.707 73.2291 103.79C71.7321 103.801 70.2351 103.781 68.7393 103.799C68.7287 103.681 68.7192 103.563 68.7109 103.448C68.9496 103.435 69.1895 103.425 69.4305 103.413C69.4281 95.8838 69.4329 88.3541 69.4281 80.8244C69.1965 80.8232 68.9662 80.822 68.7358 80.8232C68.7369 80.716 68.7369 80.5016 68.7381 80.3945C69.7011 80.3933 70.664 80.4015 71.627 80.3992C73.5718 83.8207 75.4303 87.2893 77.3598 90.7191C78.0675 92.1124 78.9029 93.4375 79.6035 94.8332C80.804 96.9202 81.9229 99.0497 83.1068 101.146C83.3986 101.686 83.629 102.271 84.0366 102.741C84.0555 96.6046 84.039 90.4682 84.0449 84.3319C84.0579 83.3095 83.5888 82.3049 82.8279 81.6288C82.2124 81.1471 81.4573 80.8102 80.6657 80.8032C80.6645 80.703 80.661 80.5016 80.6598 80.4004Z" fill="#454746"/>
<path d="M92.6543 80.3933C93.4105 80.4016 94.1678 80.4027 94.924 80.3933C95.7617 83.1918 96.6963 85.9631 97.5128 88.7687C98.4639 91.6814 99.2957 94.6306 100.249 97.5421C100.869 99.4973 101.432 101.468 102.064 103.419C102.323 103.429 102.583 103.437 102.843 103.45C102.849 103.529 102.859 103.687 102.864 103.766C101.856 103.827 100.845 103.775 99.8357 103.794C99.0665 101.246 98.2678 98.7058 97.4903 96.1606C95.503 96.1087 93.5133 96.1453 91.5247 96.1417C91.2057 97.5998 90.9127 99.0627 90.5653 100.515C90.3621 101.491 90.0797 102.451 89.9273 103.438C90.4614 103.428 90.9966 103.431 91.5307 103.439C91.5342 103.524 91.5413 103.691 91.5436 103.775C90.2948 103.814 89.0435 103.784 87.7935 103.789C87.7935 103.704 87.7935 103.536 87.7946 103.451C88.6832 103.433 89.5953 102.883 89.8139 101.987C90.6327 98.588 91.3168 95.1606 92.1214 91.7579C92.4818 90.1019 92.8906 88.4566 93.2049 86.7911C93.3845 85.929 93.6444 85.0798 93.7708 84.2082C93.4117 82.935 92.9627 81.6806 92.6543 80.3933ZM92.5739 91.5283C92.2573 92.9452 91.9229 94.3597 91.6169 95.7801C93.5227 95.7613 95.4321 95.8237 97.3355 95.7471C96.6632 93.4222 95.9094 91.1231 95.1899 88.8122C94.8472 87.5343 94.4396 86.2753 94.0414 85.0138C93.4731 87.1669 93.0867 89.3623 92.5739 91.5283Z" fill="#454746"/>
<path d="M106.007 80.3885C107.233 80.4086 108.46 80.3991 109.686 80.3956C109.693 80.5169 109.703 80.6394 109.713 80.7631C109.467 80.7961 109.221 80.8232 108.974 80.8396C108.976 87.8122 108.974 94.7848 108.975 101.756C108.979 102.317 108.958 102.878 108.993 103.438C109.225 103.431 109.462 103.43 109.697 103.435C109.7 103.516 109.709 103.68 109.712 103.761C108.462 103.832 107.209 103.774 105.956 103.791C105.95 103.677 105.944 103.564 105.941 103.452C106.177 103.441 106.413 103.432 106.653 103.43C106.67 95.8955 106.656 88.3623 106.66 80.829C106.433 80.7737 106.098 80.9409 105.949 80.7066C105.963 80.6265 105.993 80.4686 106.007 80.3885Z" fill="#454746"/>
<path d="M113.978 80.3945C114.962 80.4004 115.946 80.4051 116.929 80.3909C117.034 80.8326 117 81.2896 117.001 81.7395C117.002 88.4129 117.001 95.0864 117.002 101.759C117.008 102.32 116.978 102.882 117.027 103.443C118.861 103.424 120.695 103.437 122.527 103.437C123.279 103.446 124.036 103.237 124.671 102.834C125.637 102.176 126.293 101.017 126.164 99.8306C126.305 99.8176 126.448 99.8058 126.593 99.7964C126.592 101.13 126.6 102.463 126.588 103.796C122.387 103.794 118.184 103.784 113.982 103.801C113.966 103.68 113.952 103.561 113.938 103.442C114.181 103.435 114.425 103.43 114.671 103.428C114.682 95.8991 114.661 88.3694 114.682 80.8409C114.434 80.8267 114.186 80.8079 113.941 80.7784C113.952 80.6501 113.965 80.5217 113.978 80.3945Z" fill="#454746"/>
<path d="M135.118 80.6159C136.508 80.2672 138.025 80.3791 139.33 80.9869C139.892 81.2201 140.354 81.6347 140.905 81.8879C141.327 81.9586 141.834 81.9786 142.153 81.6394C142.514 81.365 142.659 80.9162 142.675 80.4792C142.792 80.4734 142.911 80.4686 143.033 80.4651C143.024 82.604 143.028 84.7441 143.033 86.883C142.908 86.8806 142.785 86.8794 142.663 86.8794C142.662 85.8842 142.436 84.8854 141.989 83.9962C141.286 82.7288 140.155 81.6547 138.764 81.1859C136.739 80.4027 134.293 80.8679 132.7 82.3413C132.12 82.816 131.942 83.6051 132.004 84.3224C131.949 84.9726 132.371 85.5308 132.802 85.9713C135.561 88.3328 138.373 90.6295 141.14 92.9804C141.92 93.6271 142.377 94.5563 142.722 95.488C143.535 97.8495 142.761 100.66 140.842 102.267C139.254 103.664 136.931 104.144 134.906 103.544C134.087 103.312 133.354 102.866 132.645 102.409C131.757 101.94 130.61 102.781 130.718 103.757C130.629 103.755 130.453 103.75 130.364 103.748C130.377 101.609 130.368 99.4701 130.369 97.3324C130.49 97.3324 130.611 97.3324 130.734 97.3348C130.668 99.7045 132.158 102.033 134.358 102.941C135.106 103.237 135.905 103.4 136.709 103.432C137.886 103.369 139.081 102.981 139.955 102.171C140.728 101.437 141.301 100.474 141.477 99.4171C141.758 98.0862 141.344 96.6599 140.515 95.5975C140.056 94.9898 139.411 94.5705 138.83 94.0935C136.325 92.05 133.805 90.0218 131.437 87.8205C130.646 87.0314 130.279 85.7699 130.685 84.7076C131.363 82.7265 133.078 81.1259 135.118 80.6159Z" fill="#454746"/>
</g>
<defs>
<clipPath id="clip0_42_1089">
<rect width="151" height="104" fill="white"/>
</clipPath>
</defs>
</svg>
